<svg id="Layer_1" data-name="Layer 1" xmlns="http://www.w3.org/2000/svg" viewBox="0 0 95.55 41.56"><defs><style>.cls-1{fill:#1e3050;}.cls-2{fill:#8e96a7;}.cls-3{fill:#a4abb8;}.cls-4{fill:#fefefe;}</style></defs><title>iconosAPP</title><path class="cls-1" d="M38.29,14a1,1,0,0,1,.94.62,1,1,0,0,1-.15,1,.9.9,0,0,1-.69.35H28.44a3,3,0,0,1-3.14-3c0-3.32,0-6.65,0-10A2.94,2.94,0,0,1,27.65.09,3.3,3.3,0,0,1,28.42,0c3.26,0,6.51,0,9.77,0a1.06,1.06,0,0,1,1.12,1.13q0,4.88,0,9.73a1,1,0,0,1-1,1.16.74.74,0,0,1-.46.07H28.58a2.71,2.71,0,0,0-.4,0,.9.9,0,0,0-.81.92.92.92,0,0,0,.81.9h9.65A.74.74,0,0,1,38.29,14Z"/><path class="cls-1" d="M51.55,31.55a4.5,4.5,0,0,1,3.77-4.67,4.31,4.31,0,0,1,3.83,1.22c.14.13.25.37.42.36s.26-.23.39-.36a4.42,4.42,0,0,1,3.31-1.26,4.47,4.47,0,0,1,4.28,4.51,4.57,4.57,0,0,1-1.42,3.45q-2.85,2.7-5.72,5.37a1.25,1.25,0,0,1-1.72,0L53,34.83A4.5,4.5,0,0,1,51.55,31.55Z"/><path class="cls-2" d="M67.82,7.24a4.35,4.35,0,0,1-1.4,3.42L60.74,16a1.28,1.28,0,0,1-1.82,0l-5.55-5.21a4.7,4.7,0,0,1-1.5-3.89,4.44,4.44,0,0,1,3.71-4.12,4.38,4.38,0,0,1,3.79,1.13c.16.15.32.43.48.43s.33-.28.49-.43a4.48,4.48,0,0,1,7.48,2.74A4.42,4.42,0,0,1,67.82,7.24Z"/><path class="cls-3" d="M94.28,7.76c0,2.81,0,5.63,0,8.44a1.53,1.53,0,0,1-1.56,1.56c-1.1,0-2.2,0-3.3,0H81.91a1.5,1.5,0,0,1-1.49-.93,1.85,1.85,0,0,1-.13-.73V10.54c0-1.73,0-3.47,0-5.2a.51.51,0,0,1,0-.34c.11.11.08.25.09.38V7.25c0,.42,0,.42.41.42H93.75A.76.76,0,0,1,94.28,7.76Z"/><path class="cls-3" d="M33.58,38.7c0-.11,0-.22,0-.32V26c0-.23.07-.31.29-.34l5-.74L40,24.76a1.07,1.07,0,0,1,1.07.65c0,.07,0,.15.1.2a.49.49,0,0,1,.07.33V36.15a1.18,1.18,0,0,1-1.1,1.34L34,38.72C33.84,38.74,33.7,38.8,33.58,38.7Z"/><path class="cls-3" d="M25.08,25.61c.11-.17.14-.38.3-.53a1.33,1.33,0,0,1,1.28-.26c1.31.21,2.63.39,3.94.59.59.09,1.18.18,1.77.25.2,0,.22.14.22.31V38.36c0,.12,0,.24,0,.34-.09.09-.2,0-.3,0L26,37.47a1.16,1.16,0,0,1-1-1.29V26A.59.59,0,0,1,25.08,25.61Z"/><path class="cls-1" d="M25.08,25.61c0,.12,0,.23,0,.35V36.23a1.06,1.06,0,0,0,1,1.17l6.5,1.3h.07a1.41,1.41,0,0,0,.95,0L37.24,38l2.85-.57a1.08,1.08,0,0,0,1-1.24V25.91c0-.1,0-.2,0-.3.3-.05.6-.13.9-.16a.94.94,0,0,1,1.05.87c0,.1,0,.2,0,.3V37.69a1.05,1.05,0,0,1-1,1.21l-8.85,1.77a.69.69,0,0,1-.32,0L24.09,38.9a1.05,1.05,0,0,1-1-1.19V26.52a1,1,0,0,1,1.29-1.05Z"/><path class="cls-1" d="M7,16.11c-1.92,0-3.83,0-5.75,0A1.09,1.09,0,0,1,0,14.81,5.53,5.53,0,0,1,3.43,10a5,5,0,0,1,2-.42c1.18,0,2.37-.06,3.55,0a5.48,5.48,0,0,1,4.93,4.41,5.91,5.91,0,0,1,.12,1,1,1,0,0,1-1,1H7Z"/><path class="cls-1" d="M94.28,7.76H80.56c-.18,0-.24,0-.24-.23,0-.84,0-1.69,0-2.53a1.5,1.5,0,0,1,1.55-1.24h1.23c.15,0,.2,0,.19-.19s0-.53,0-.8a1,1,0,0,1,1-1,1,1,0,0,1,1,1v.8c0,.13,0,.19.17.19h3.67c.14,0,.17-.06.16-.18v-.8a1,1,0,0,1,1-1,1,1,0,0,1,1,1c0,.27,0,.53,0,.8s0,.18.18.18a11,11,0,0,1,1.62,0,1.43,1.43,0,0,1,1.18,1.26C94.33,6,94.31,6.86,94.28,7.76Z"/><path class="cls-3" d="M88.3,41.56H82.15a2.71,2.71,0,0,1-1.56-.45,2.47,2.47,0,0,1-1-1.71,7.38,7.38,0,0,1,0-1v-9.7a1,1,0,0,1,1.62-.89.93.93,0,0,1,.38.82V38.9c0,.48.18.66.67.66H94.46a1,1,0,0,1,.91.4,1.07,1.07,0,0,1,.08,1,.89.89,0,0,1-.9.54Z"/><path class="cls-3" d="M11,4.11a4,4,0,0,1-8,0,4,4,0,1,1,8,0Z"/><path class="cls-3" d="M38.29,14h-10a1,1,0,0,1-.94-.58,1,1,0,0,1,.14-1.08.93.93,0,0,1,.8-.34h10Z"/><path class="cls-1" d="M94.55,33.06v3.47a1,1,0,1,1-2,0v-7a1,1,0,1,1,2,0Z"/><path class="cls-1" d="M88.55,34.06v2.47a1,1,0,1,1-2,0v-5a1,1,0,1,1,2,0Z"/><path class="cls-1" d="M91.55,35.06v1.5a1,1,0,0,1-1,1,1,1,0,0,1-1-1v-3a1,1,0,0,1,1-1,1,1,0,0,1,1,1Z"/><path class="cls-1" d="M85.55,35.58v1a1,1,0,0,1-1,1,1,1,0,0,1-1-1v-2a1,1,0,0,1,1-1,1,1,0,0,1,1,1Z"/><path class="cls-4" d="M84.29,10.78v.44c0,.34-.17.52-.5.53a7.85,7.85,0,0,1-1,0,.51.51,0,0,1-.53-.54c0-.3,0-.6,0-.9a.51.51,0,0,1,.54-.55h1a.47.47,0,0,1,.51.54Z"/><path class="cls-4" d="M88.29,10.78v.44c0,.34-.17.52-.5.53a7.85,7.85,0,0,1-1,0,.51.51,0,0,1-.53-.54c0-.3,0-.6,0-.9a.51.51,0,0,1,.54-.55h1a.47.47,0,0,1,.51.54Z"/><path class="cls-4" d="M92.29,10.76v.47c0,.33-.16.51-.48.52a8.34,8.34,0,0,1-1,0,.5.5,0,0,1-.52-.52q0-.46,0-.93a.51.51,0,0,1,.53-.54h1c.33,0,.49.19.5.53Z"/><path class="cls-4" d="M84.29,14.76v.47a.47.47,0,0,1-.5.52,8,8,0,0,1-1,0,.5.5,0,0,1-.52-.54q0-.45,0-.9a.51.51,0,0,1,.52-.55h1a.47.47,0,0,1,.5.52Z"/><path class="cls-4" d="M88.29,14.75v.48a.47.47,0,0,1-.5.52,7.85,7.85,0,0,1-1,0,.51.51,0,0,1-.53-.52c0-.31,0-.63,0-.94a.5.5,0,0,1,.52-.53h1a.47.47,0,0,1,.48.52Z"/><path class="cls-4" d="M92.29,14.76v.47c0,.33-.16.51-.48.52a8.34,8.34,0,0,1-1,0,.5.5,0,0,1-.52-.52q0-.46,0-.93a.51.51,0,0,1,.55-.54h.93a.48.48,0,0,1,.52.55Z"/><line class="cls-1" x1="33.68" y1="38.56" x2="33.68" y2="38.56"/></svg>